<mxfile host="65bd71144e">
    <diagram id="5T2dI4oBYYoTUcFh6mJV" name="Page-1">
        <mxGraphModel dx="1117" dy="611" grid="1" gridSize="10" guides="1" tooltips="1" connect="1" arrows="1" fold="1" page="1" pageScale="1" pageWidth="850" pageHeight="1100" math="0" shadow="0">
            <root>
                <mxCell id="0"/>
                <mxCell id="1" parent="0"/>
                <mxCell id="2" value="" style="rounded=1;whiteSpace=wrap;html=1;fillColor=none;" vertex="1" parent="1">
                    <mxGeometry x="180" y="100" width="400" height="380" as="geometry"/>
                </mxCell>
                <mxCell id="3" value="&lt;i&gt;Front Position/Parking Lamp&lt;/i&gt;" style="rounded=0;whiteSpace=wrap;html=1;" vertex="1" parent="1">
                    <mxGeometry x="80" y="160" width="120" height="50" as="geometry"/>
                </mxCell>
                <mxCell id="4" value="High Beam&amp;nbsp;" style="rounded=0;whiteSpace=wrap;html=1;" vertex="1" parent="1">
                    <mxGeometry x="80" y="220" width="120" height="20" as="geometry"/>
                </mxCell>
                <mxCell id="5" value="Low Beam" style="rounded=0;whiteSpace=wrap;html=1;" vertex="1" parent="1">
                    <mxGeometry x="80" y="260" width="120" height="20" as="geometry"/>
                </mxCell>
                <mxCell id="6" value="Front Fog" style="rounded=0;whiteSpace=wrap;html=1;" vertex="1" parent="1">
                    <mxGeometry x="80" y="300" width="120" height="20" as="geometry"/>
                </mxCell>
                <mxCell id="7" value="&lt;i&gt;Indicator-Fender light&lt;/i&gt;" style="rounded=0;whiteSpace=wrap;html=1;" vertex="1" parent="1">
                    <mxGeometry x="190" y="70" width="70" height="30" as="geometry"/>
                </mxCell>
                <mxCell id="8" value="&lt;i&gt;DRL*&lt;/i&gt;" style="rounded=0;whiteSpace=wrap;html=1;" vertex="1" parent="1">
                    <mxGeometry x="80" y="380" width="120" height="20" as="geometry"/>
                </mxCell>
                <mxCell id="9" value="&lt;i&gt;Indicator-Main&lt;/i&gt;" style="rounded=0;whiteSpace=wrap;html=1;" vertex="1" parent="1">
                    <mxGeometry x="80" y="340" width="120" height="20" as="geometry"/>
                </mxCell>
                <mxCell id="10" value="&lt;i&gt;Indicator-Side Mirror light&lt;/i&gt;" style="rounded=0;whiteSpace=wrap;html=1;" vertex="1" parent="1">
                    <mxGeometry x="280" y="80" width="140" height="20" as="geometry"/>
                </mxCell>
                <mxCell id="11" value="&lt;i&gt;Indicator-Fender light&lt;/i&gt;" style="rounded=0;whiteSpace=wrap;html=1;" vertex="1" parent="1">
                    <mxGeometry x="190" y="480" width="70" height="30" as="geometry"/>
                </mxCell>
                <mxCell id="12" value="&lt;i&gt;Indicator-Side Mirror light&lt;/i&gt;" style="rounded=0;whiteSpace=wrap;html=1;" vertex="1" parent="1">
                    <mxGeometry x="280" y="480" width="140" height="20" as="geometry"/>
                </mxCell>
                <mxCell id="13" value="&lt;i&gt;Tailgate Position/Parking Lamp&lt;/i&gt;" style="rounded=0;whiteSpace=wrap;html=1;" vertex="1" parent="1">
                    <mxGeometry x="560" y="120" width="130" height="30" as="geometry"/>
                </mxCell>
                <mxCell id="14" value="&lt;i&gt;Tail light Stop lamp&lt;/i&gt;" style="rounded=0;whiteSpace=wrap;html=1;" vertex="1" parent="1">
                    <mxGeometry x="560" y="160" width="130" height="20" as="geometry"/>
                </mxCell>
                <mxCell id="15" value="&lt;i&gt;Brake lights&lt;/i&gt;" style="rounded=0;whiteSpace=wrap;html=1;" vertex="1" parent="1">
                    <mxGeometry x="560" y="200" width="130" height="20" as="geometry"/>
                </mxCell>
                <mxCell id="16" value="&lt;i&gt;Reverse&lt;/i&gt;" style="rounded=0;whiteSpace=wrap;html=1;" vertex="1" parent="1">
                    <mxGeometry x="560" y="240" width="130" height="20" as="geometry"/>
                </mxCell>
                <mxCell id="17" value="&lt;i&gt;Indicator&lt;/i&gt;" style="rounded=0;whiteSpace=wrap;html=1;" vertex="1" parent="1">
                    <mxGeometry x="560" y="320" width="130" height="20" as="geometry"/>
                </mxCell>
                <mxCell id="18" value="Rear Fog" style="rounded=0;whiteSpace=wrap;html=1;" vertex="1" parent="1">
                    <mxGeometry x="560" y="280" width="130" height="20" as="geometry"/>
                </mxCell>
                <mxCell id="19" value="Registration Plate" style="rounded=0;whiteSpace=wrap;html=1;" vertex="1" parent="1">
                    <mxGeometry x="560" y="360" width="130" height="20" as="geometry"/>
                </mxCell>
                <mxCell id="20" value="&lt;i&gt;CHMSL*&lt;/i&gt;" style="rounded=0;whiteSpace=wrap;html=1;" vertex="1" parent="1">
                    <mxGeometry x="560" y="400" width="130" height="20" as="geometry"/>
                </mxCell>
                <mxCell id="21" value="* DRL: Daylight Running Light" style="text;html=1;strokeColor=none;fillColor=none;align=left;verticalAlign=middle;whiteSpace=wrap;rounded=0;fontSize=10;" vertex="1" parent="1">
                    <mxGeometry x="60" y="530" width="170" height="10" as="geometry"/>
                </mxCell>
                <mxCell id="22" value="* CHMSL: Center High Mount Stop Lamp" style="text;html=1;strokeColor=none;fillColor=none;align=left;verticalAlign=middle;whiteSpace=wrap;rounded=0;fontSize=10;" vertex="1" parent="1">
                    <mxGeometry x="60" y="550" width="190" height="10" as="geometry"/>
                </mxCell>
                <mxCell id="23" value="M" style="dashed=0;outlineConnect=0;align=center;html=1;shape=mxgraph.pid.engines.electric_motor_(dc);fontSize=10;" vertex="1" parent="1">
                    <mxGeometry x="200" y="260" width="20" height="20" as="geometry"/>
                </mxCell>
                <mxCell id="24" value="" style="group" connectable="0" vertex="1" parent="1">
                    <mxGeometry x="270" y="220" width="30" height="30" as="geometry"/>
                </mxCell>
                <mxCell id="25" value="" style="ellipse;whiteSpace=wrap;html=1;aspect=fixed;" vertex="1" parent="24">
                    <mxGeometry width="30" height="30" as="geometry"/>
                </mxCell>
                <mxCell id="26" value="" style="ellipse;whiteSpace=wrap;html=1;aspect=fixed;" vertex="1" parent="24">
                    <mxGeometry x="10" y="10" width="10" height="10" as="geometry"/>
                </mxCell>
                <mxCell id="27" value="" style="verticalLabelPosition=bottom;sketch=0;html=1;fillColor=#6ABD46;strokeColor=#ffffff;verticalAlign=top;align=center;points=[[0.085,0.085,0],[0.915,0.085,0],[0.915,0.915,0],[0.085,0.915,0],[0.25,0,0],[0.5,0,0],[0.75,0,0],[1,0.25,0],[1,0.5,0],[1,0.75,0],[0.75,1,0],[0.5,1,0],[0.25,1,0],[0,0.75,0],[0,0.5,0],[0,0.25,0]];pointerEvents=1;shape=mxgraph.cisco_safe.compositeIcon;bgIcon=mxgraph.cisco_safe.architecture.generic_appliance;resIcon=mxgraph.cisco_safe.architecture.sensor;" vertex="1" parent="1">
                    <mxGeometry x="10" y="240" width="20" height="20" as="geometry"/>
                </mxCell>
                <mxCell id="28" value="M" style="dashed=0;outlineConnect=0;align=center;html=1;shape=mxgraph.pid.engines.electric_motor_(dc);fontSize=10;" vertex="1" parent="1">
                    <mxGeometry x="200" y="220" width="20" height="20" as="geometry"/>
                </mxCell>
                <mxCell id="29" value="&lt;b&gt;3&lt;/b&gt;" style="rhombus;whiteSpace=wrap;html=1;strokeColor=none;" vertex="1" parent="1">
                    <mxGeometry x="220" y="220" width="20" height="20" as="geometry"/>
                </mxCell>
                <mxCell id="30" value="&lt;b&gt;4&lt;/b&gt;" style="rhombus;whiteSpace=wrap;html=1;strokeColor=none;" vertex="1" parent="1">
                    <mxGeometry x="275" y="200" width="20" height="20" as="geometry"/>
                </mxCell>
                <mxCell id="31" value="&lt;b&gt;1&lt;/b&gt;" style="rhombus;whiteSpace=wrap;html=1;strokeColor=none;" vertex="1" parent="1">
                    <mxGeometry x="10" y="220" width="20" height="20" as="geometry"/>
                </mxCell>
                <mxCell id="32" value="" style="verticalLabelPosition=bottom;sketch=0;html=1;fillColor=#6ABD46;strokeColor=#ffffff;verticalAlign=top;align=center;points=[[0.085,0.085,0],[0.915,0.085,0],[0.915,0.915,0],[0.085,0.915,0],[0.25,0,0],[0.5,0,0],[0.75,0,0],[1,0.25,0],[1,0.5,0],[1,0.75,0],[0.75,1,0],[0.5,1,0],[0.25,1,0],[0,0.75,0],[0,0.5,0],[0,0.25,0]];pointerEvents=1;shape=mxgraph.cisco_safe.compositeIcon;bgIcon=mxgraph.cisco_safe.architecture.generic_appliance;resIcon=mxgraph.cisco_safe.architecture.sensor;" vertex="1" parent="1">
                    <mxGeometry x="10" y="180" width="20" height="20" as="geometry"/>
                </mxCell>
                <mxCell id="33" value="&lt;b&gt;2&lt;/b&gt;" style="rhombus;whiteSpace=wrap;html=1;strokeColor=none;direction=south;" vertex="1" parent="1">
                    <mxGeometry x="10" y="160" width="20" height="20" as="geometry"/>
                </mxCell>
                <mxCell id="34" value="Vehicle body/boundary" style="rounded=1;whiteSpace=wrap;html=1;fillColor=none;" vertex="1" parent="1">
                    <mxGeometry x="540" y="520" width="110" height="40" as="geometry"/>
                </mxCell>
                <mxCell id="35" value="&lt;i&gt;Signal lights&lt;/i&gt;" style="rounded=0;whiteSpace=wrap;html=1;" vertex="1" parent="1">
                    <mxGeometry x="660" y="515" width="100" height="20" as="geometry"/>
                </mxCell>
                <mxCell id="36" value="Normal lights" style="rounded=0;whiteSpace=wrap;html=1;" vertex="1" parent="1">
                    <mxGeometry x="660" y="540" width="100" height="20" as="geometry"/>
                </mxCell>
                <mxCell id="37" value="Legend" style="text;html=1;strokeColor=none;fillColor=none;align=center;verticalAlign=middle;whiteSpace=wrap;rounded=0;" vertex="1" parent="1">
                    <mxGeometry x="600" y="500" width="70" height="10" as="geometry"/>
                </mxCell>
                <mxCell id="38" value="" style="endArrow=classic;html=1;rounded=0;" edge="1" parent="1">
                    <mxGeometry width="50" height="50" relative="1" as="geometry">
                        <mxPoint x="300" y="139" as="sourcePoint"/>
                        <mxPoint x="220" y="139" as="targetPoint"/>
                    </mxGeometry>
                </mxCell>
                <mxCell id="39" value="Front" style="text;html=1;strokeColor=none;fillColor=none;align=center;verticalAlign=middle;whiteSpace=wrap;rounded=0;" vertex="1" parent="1">
                    <mxGeometry x="230" y="109" width="60" height="30" as="geometry"/>
                </mxCell>
                <mxCell id="40" value="" style="group" connectable="0" vertex="1" parent="1">
                    <mxGeometry x="450" y="110" width="62" height="31" as="geometry"/>
                </mxCell>
                <mxCell id="41" value="" style="endArrow=classic;html=1;rounded=0;" edge="1" parent="40">
                    <mxGeometry width="50" height="50" relative="1" as="geometry">
                        <mxPoint y="30" as="sourcePoint"/>
                        <mxPoint x="60" y="30" as="targetPoint"/>
                    </mxGeometry>
                </mxCell>
                <mxCell id="42" value="Rear" style="text;html=1;strokeColor=none;fillColor=none;align=center;verticalAlign=middle;whiteSpace=wrap;rounded=0;" vertex="1" parent="40">
                    <mxGeometry width="62" height="31" as="geometry"/>
                </mxCell>
                <mxCell id="43" value="" style="shape=image;html=1;verticalAlign=top;verticalLabelPosition=bottom;labelBackgroundColor=#ffffff;imageAspect=0;aspect=fixed;image=https://cdn4.iconfinder.com/data/icons/ios-web-user-interface-multi-circle-flat-vol-7/512/Off_on_power_energy_restart_disable_switch-128.png" vertex="1" parent="1">
                    <mxGeometry x="216" y="176" width="18" height="18" as="geometry"/>
                </mxCell>
                <mxCell id="44" value="&lt;b&gt;5&lt;/b&gt;" style="rhombus;whiteSpace=wrap;html=1;strokeColor=none;" vertex="1" parent="1">
                    <mxGeometry x="220" y="156" width="20" height="20" as="geometry"/>
                </mxCell>
                <mxCell id="45" value="LD" style="rounded=0;whiteSpace=wrap;html=1;fillColor=#B3FF66;" vertex="1" parent="1">
                    <mxGeometry x="330" y="240" width="40" height="20" as="geometry"/>
                </mxCell>
                <mxCell id="46" value="&lt;b&gt;6&lt;/b&gt;" style="rhombus;whiteSpace=wrap;html=1;strokeColor=none;" vertex="1" parent="1">
                    <mxGeometry x="340" y="220" width="20" height="20" as="geometry"/>
                </mxCell>
                <mxCell id="47" value="* LD: Lane Departure" style="text;html=1;strokeColor=none;fillColor=none;align=left;verticalAlign=middle;whiteSpace=wrap;rounded=0;fontSize=10;" vertex="1" parent="1">
                    <mxGeometry x="60" y="570" width="190" height="10" as="geometry"/>
                </mxCell>
                <mxCell id="48" value="&lt;font style=&quot;font-size: 10px;&quot;&gt;Software components/Algorithms&lt;/font&gt;" style="rounded=0;whiteSpace=wrap;html=1;fillColor=#B3FF66;" vertex="1" parent="1">
                    <mxGeometry x="540" y="565" width="130" height="35" as="geometry"/>
                </mxCell>
                <mxCell id="49" value="" style="shape=image;html=1;verticalAlign=top;verticalLabelPosition=bottom;labelBackgroundColor=#ffffff;imageAspect=0;aspect=fixed;image=https://cdn1.iconfinder.com/data/icons/racing-13/512/Pedals-128.png" vertex="1" parent="1">
                    <mxGeometry x="500" y="190" width="30" height="30" as="geometry"/>
                </mxCell>
                <mxCell id="50" value="&lt;b&gt;7&lt;/b&gt;" style="rhombus;whiteSpace=wrap;html=1;strokeColor=none;" vertex="1" parent="1">
                    <mxGeometry x="480" y="180" width="20" height="20" as="geometry"/>
                </mxCell>
            </root>
        </mxGraphModel>
    </diagram>
</mxfile>